<svg viewBox="0 0 33.877 28.215">
  <path d="M665.779 600.464c-10.372.466 1.206 9.314-4.657 13.97-.02 0-.042.021-.084.043-4.086 1.65-8.658-5.017-8.785 1.99 2.16-3.24 3.154-.085 6.71-.276-1.735 2.286-.889 6.117-3.767 6.731-5.27 1.143-9.123-5.25-8.784-9.27.698-8.912 7.683-12.976 14.626-12.553-9.187-1.841-16.976 5.736-16.743 13.59.275 8.995 5.038 13.398 12.382 13.99 10.372-.465-1.206-9.313 4.657-13.97.021 0 .042-.02.085-.02 4.085-1.673 8.657 4.995 8.784-2.012-2.16 3.26-3.154.085-6.71.276 1.736-2.265.889-6.096 3.768-6.731 5.27-1.143 9.122 5.27 8.784 9.27-.699 8.933-7.684 12.976-14.626 12.552 9.186 1.842 16.975-5.715 16.742-13.567-.275-9.017-5.037-13.42-12.382-14.013z" style="fill:#000;fill-opacity:1;fill-rule:nonzero;stroke:none" transform="translate(-644.29 -600.464)"/>
</svg>
