<svg viewBox="0 0 480.847 485.935">
  <path d="M266.385 471.067c-.864-.963-2.374-3.775-3.356-6.25-2.523-6.36-26.018-37.158-39.669-52-21.5-23.376-45.17-43.53-72.214-61.486-31.058-20.62-62.365-37.595-91-49.338-16.86-6.915-28.5-12.362-28.5-13.338 0-.457 6.694-10.62 14.874-22.584 17.43-25.492 20.387-30.765 30.698-54.748 13.959-32.465 22.604-57.996 30.818-91.006 6.302-25.327 9.353-42.437 15.736-88.25 3.845-27.6 6.723-45.25 7.377-45.25.59 0 8.64 2.236 17.892 4.969C177.369.154 190.016 2.264 230.646 5.404c16.813 1.3 28.695 1.536 54.5 1.085 53.042-.926 80.877-4.713 112.365-15.287 7.351-2.469 13.523-4.33 13.716-4.138.193.193 2.623 13.38 5.399 29.302 14.473 83.02 29.878 145.956 43.571 178.016 8.656 20.264 31.867 61.769 47.685 85.266 2.714 4.032 4.784 7.47 4.6 7.638-.185.168-8.21 3.772-17.836 8.008-80.36 35.37-130.296 67.5-173.558 111.67-16.154 16.492-21.887 23.793-37.877 48.233-11.895 18.18-13.442 19.64-16.826 15.87zm12.912-61.25c5.342-24.433 17.412-56.15 33.963-89.246 18.722-37.436 41.186-73.882 73.755-119.657 10.65-14.968 13.72-20.341 12.388-21.674-.267-.267-7.408.629-15.87 1.99-29.814 4.794-43.098 5.936-69.887 6.009-24.358.065-38.827-.991-48.37-3.533l-3.872-1.031.68-6.18c4.852-44.064 30.431-95.886 67.418-136.584 4.046-4.452 6.992-8.094 6.546-8.094-.446 0-5.556 1.341-11.356 2.98-33.473 9.46-71.99 10.445-99.219 2.535-4.77-1.385-9.287-2.755-10.038-3.043-1.13-.433-1.294 2.272-.954 15.641.463 18.182-.64 28.539-4.889 45.887-11.1 45.334-39.312 97.927-81.624 152.167-4.577 5.867-8.322 10.89-8.322 11.161 0 .272 2.813-.166 6.25-.973 38.44-9.022 58.381-12.087 84.25-12.948 27.314-.909 49.15.95 66.834 5.688 3.018.809 3.69 1.386 3.156 2.716-4.39 10.945-10.055 43.62-11.571 66.736-2.119 32.306.653 83.624 5.776 106.953.64 2.918.683 2.877 1.55-1.5.49-2.475 2.023-9.675 3.406-16z" style="fill-opacity:1" transform="translate(-31.646 13.183)"/>
</svg>
