<svg viewBox="0 0 600 600">
  <path d="M490.19 610.457c-49.376-49.376-59.333-60.769-59.333-67.89 0-6.915 7.197-15.892 37.5-46.776 35.24-35.915 37.5-38.934 37.5-50.086 0-15.645-9.425-24.914-25.334-24.914-10.614 0-14.229 2.729-49.666 37.5-30.884 30.303-39.86 37.5-46.776 37.5-7.121 0-18.514-9.957-67.89-59.334-44.748-44.747-59.334-61.136-59.334-66.666 0-5.53 14.586-21.92 59.333-66.667 49.377-49.377 60.77-59.333 67.891-59.333 6.915 0 15.892 7.196 46.776 37.5 35.915 35.24 38.934 37.5 50.086 37.5 15.645 0 24.914-9.425 24.914-25.334 0-10.615-2.729-14.229-37.5-49.666-30.303-30.884-37.5-39.86-37.5-46.776 0-7.122 9.957-18.514 59.333-67.89 44.748-44.748 61.137-59.334 66.667-59.334 5.53 0 21.92 14.586 66.667 59.333 49.377 49.377 59.333 60.77 59.333 67.89 0 6.916-7.197 15.893-37.5 46.777-35.24 35.915-37.5 38.934-37.5 50.086 0 15.645 9.425 24.914 25.334 24.914 10.615 0 14.229-2.73 49.666-37.5 30.884-30.304 39.86-37.5 46.776-37.5 7.121 0 18.514 9.956 67.89 59.333 44.748 44.748 59.334 61.136 59.334 66.667 0 5.53-14.586 21.919-59.333 66.666-49.377 49.377-60.77 59.334-67.891 59.334-6.915 0-15.892-7.197-46.776-37.5-35.915-35.24-38.934-37.5-50.086-37.5-15.645 0-24.914 9.425-24.914 25.334 0 10.614 2.729 14.229 37.5 49.666 30.303 30.884 37.5 39.86 37.5 46.776 0 7.121-9.956 18.514-59.333 67.89-44.748 44.748-61.136 59.334-66.667 59.334-5.53 0-21.92-14.586-66.667-59.334zm66.667-213.666h103.41l34.585 34.495 34.585 34.495 47.925-47.995 47.925-47.995-47.925-47.995-47.925-47.995-34.585 34.495-34.585 34.495h-206.82l-34.585-34.495-34.585-34.495-47.925 47.995-47.925 47.995 47.925 47.995 47.925 47.995 34.585-34.495 34.585-34.495h103.41z" style="fill:#000" transform="translate(-256.857 -69.79)"/>
</svg>
