<svg viewBox="0 0 600 1111.109">
  <g clip-path="url(#clipPath3754)" transform="matrix(3.7037 0 0 -3.7037 0 1111.111)">
    <path d="m0 0 .469 5.923H.285l.184.095 6.195 78.928s3.087-54.589 12.294-70.364c3.95 1.56 7.965 2.959 12.042 4.221 9.948 26.042 13.441 103.416 13.441 103.416s2.322-70.49 11.078-97.851c4.801.719 9.684 1.223 14.662 1.535 9.048 33.655 11.507 125.243 11.507 125.243S84.669 59.337 93.583 25.79c4.744-.342 9.409-.877 14.002-1.588 8.647 27.254 12.109 98.055 12.109 98.055s2.803-77.8 11.859-103.625a160.946 160.946 0 0 0 11.706-4.14c10.044 15.58 13.582 70.352 13.582 70.352l4.792-78.884.203-.102h-.19L162 0S81.688-26.142 81.688-148.854C81.688-26.724 0 0 0 0" style="fill:#000;fill-opacity:1;fill-rule:nonzero;stroke:none" transform="translate(0 148.855)"/>
  </g>
</svg>
