<svg viewBox="0 0 21.78 24.227">
  <path d="M671.073 498.616c-1.058 2.518-3.154 3.767-6.286 3.767-.572 0-1.207.064-1.863.212-1.016.211-1.524.529-1.524.91 0 .106.085.254.254.402.17.17.318.233.445.233-.614 0-.19.021 1.206.063 1.418.022 2.307.043 2.667.043-2.095 1.227-5.567 1.799-10.456 1.693-1.609-.021-2.985-.74-4.128-2.117-1.121-1.312-1.693-2.794-1.693-4.423 0-1.715.572-3.196 1.736-4.403 1.164-1.206 2.603-1.82 4.339-1.82.38 0 .889.084 1.524.254.635.169 1.058.254 1.27.254.889 0 1.99-.36 3.302-1.101 1.333-.72 1.947-1.08 1.884-1.08-.254 2.52-1.08 4.192-2.52 5.06-1.036.592-1.544 1.185-1.544 1.756 0 .36.211.656.635.868.338.17.72.254 1.121.254.614 0 1.228-.381 1.842-1.143.593-.783.847-1.482.783-2.095-.063-.72-.021-1.588.148-2.583.043-.296.212-.635.508-1.058.297-.423.572-.677.826-.783 0 .211-.085.571-.254 1.08-.148.507-.233.888-.233 1.121 0 .53.148.931.444 1.207.424-.149.805-.699 1.143-1.61.297-.698.466-1.354.508-2.01-1.016-.042-1.968-.508-2.9-1.355-.91-.867-1.375-1.799-1.375-2.815 0-.17.021-.338.063-.508.148.233.36.55.656 1.016.403.593.72.89.932.89.296 0 .423-.297.423-.89 0-.762-.19-1.46-.593-2.074-.465-.762-1.058-1.122-1.778-1.122-.338 0-.825.17-1.502.53-.678.36-1.27.55-1.82.55-.17 0-.932-.212-2.244-.657 2.328-.38 3.492-.72 3.492-1.037 0-.804-1.587-1.354-4.784-1.65a48.146 48.146 0 0 1-1.714-.149c.085-.106.762-.254 2.032-.402 1.08-.106 1.841-.17 2.265-.17 5.715 0 9.334 2.773 10.858 8.298.254-.212.402-.572.402-1.1 0-.636-.19-1.482-.592-2.477-.127-.381-.36-.953-.678-1.736 1.969 2.498 2.943 4.868 2.943 7.112 0 1.185-.276 2.244-.826 3.217-.36.635-1.016 1.482-2.01 2.477-.974 1.016-1.652 1.799-2.012 2.35 1.313-.36 2.18-.636 2.583-.826.91-.402 1.735-1.016 2.497-1.82 0 .296-.148.762-.402 1.397zm-15.663-14.119c0 .424-.233.699-.72.826l-.931.148c-.339.17-.826.826-1.482 1.969-.063-.36-.169-.868-.317-1.503-.212.021-.572.211-1.08.571-.211.17-.571.424-1.037.741.148-.847.614-1.736 1.44-2.603.846-.995 1.693-1.482 2.497-1.482 1.08 0 1.63.444 1.63 1.333zm6.244 3.302c0 .403-.212.741-.656 1.016-.445.276-.89.424-1.312.424-.572 0-1.101-.318-1.546-.974-.55-.783-1.121-1.312-1.693-1.545a.599.599 0 0 1 .423-.19c.233 0 .593.169 1.101.507.53.34.847.508.995.508.127 0 .317-.169.593-.508.275-.338.571-.508.91-.508.804 0 1.185.424 1.185 1.27z" style="fill:#0d0f0f;fill-opacity:1;fill-rule:nonzero;stroke:none" transform="translate(-649.695 -481.725)"/>
</svg>
