<svg viewBox="0 0 28.215 27.58">
  <path d="m471.338 516.432.677 1.164h1.228l2.392 1.164.19-2.646.614-1.08-.677-1.142 4.762-.445-1.99-4.36h1.334l.614-1.037 2.201-1.503-2.201-1.503-.614-1.058h-1.334l1.99-4.34-4.762-.444.677-1.164-.614-1.058-.19-2.667-2.392 1.164-1.228.021-.677 1.143-2.752-3.895-2.773 3.895-.656-1.143-1.228-.021-2.413-1.164-.19 2.667-.593 1.058.656 1.164-4.762.445 1.99 4.339h-1.334l-.614 1.058-2.201 1.503 2.201 1.503.614 1.037h1.334l-1.99 4.36 4.762.445-.656 1.143.593 1.08.19 2.645 2.413-1.164h1.228l.656-1.164 2.773 3.894z" style="fill:#0d0f0f;fill-opacity:1;fill-rule:nonzero;stroke:none" transform="translate(-454.468 -492.747)"/>
  <path d="m472.84 516.199.995.571.995-.571v-1.143l-.995-.55-3.81-7.133 8.065-.254.995.571.994-.571v-1.143l-.994-.572-.995.572-8.065-.254 3.81-7.134.995-.571v-1.143l-.995-.572-.994.572v1.143l-4.255 6.858-4.276-6.858v-1.143l-.973-.572-.995.572v1.143l.995.571 3.81 7.134-8.086.254-.995-.572-.973.572v1.143l.973.571.995-.571 8.086.254-3.81 7.133-.995.55v1.143l.995.571.973-.571v-1.143l4.276-6.858 4.255 6.858z" style="fill:#fff;fill-opacity:1;fill-rule:nonzero;stroke:none" transform="translate(-454.468 -492.747)"/>
  <path d="m468.586 495.286 1.99 3.472-1.99 3.45-1.99-3.45zm-9.758 5.631h4l2.012 3.471-4-.021zm0 11.26 2.011-3.471h4l-2.01 3.45zm9.758 5.631-1.99-3.472 1.99-3.471 1.99 3.471zm9.737-5.631-4-.02-1.99-3.451h3.979zm0-11.26-2.011 3.45-3.98.021 1.99-3.471z" style="fill:#fff;fill-opacity:1;fill-rule:nonzero;stroke:none" transform="translate(-454.468 -492.747)"/>
</svg>
