<svg xml:space="preserve" viewBox="0 0 198 300">
  <path fill="#FFF" d="M180.583 44.328C168.128 23.162 149.956 9.8 128.034 5.686c-.106-.021-32.277-5.075-32.406-5.09A82.551 82.551 0 0 0 85.677 0C59.252 0 37.062 11.888 21.506 34.378 7.437 54.719 0 82.072 0 113.481V251.67c0 2.396.789 4.727 2.246 6.631l28.59 37.399a10.953 10.953 0 0 0 8.704 4.3h147.512c6.047 0 10.949-4.894 10.949-10.931V116.463c-.001-27.831-6.022-52.775-17.418-72.135z"/>
  <path fill="#666" d="M187.051 293.624H39.539a4.564 4.564 0 0 1-3.627-1.792L7.323 254.433a4.55 4.55 0 0 1-.936-2.763V113.481c0-64.063 31.864-107.104 79.29-107.104 3.098 0 6.186.184 9.18.549l31.864 5.003c39.473 7.406 64.893 48.43 64.893 104.534v172.606a4.56 4.56 0 0 1-4.563 4.555z"/>
  <path fill="#CCC" d="M83.294 15.557c-40.643 1.47-67.782 40.432-67.782 97.925v136.65l19.464 25.461V114.641c0-48.526 18.54-84.809 48.318-99.084z"/>
  <path fill="#CCC" d="M44.101 284.515H182.49V114.641c0-57.802-27.807-96.637-69.195-96.637-41.388 0-69.193 38.835-69.193 96.637v169.874z"/>
  <path fill="#999" d="M152.986 87.146H73.604a4.559 4.559 0 0 1-4.563-4.555 4.559 4.559 0 0 1 4.563-4.555h79.383a4.558 4.558 0 0 1 4.562 4.555 4.56 4.56 0 0 1-4.563 4.555zM136.3 121.762H90.289a4.559 4.559 0 0 1-4.563-4.555 4.559 4.559 0 0 1 4.563-4.555H136.3a4.558 4.558 0 0 1 4.563 4.555 4.56 4.56 0 0 1-4.563 4.555zm16.686 50.101H73.604a4.559 4.559 0 0 1-4.563-4.555 4.559 4.559 0 0 1 4.563-4.555h79.383a4.558 4.558 0 0 1 4.562 4.555 4.56 4.56 0 0 1-4.563 4.555zm-14.357 40.081H87.96a4.558 4.558 0 0 1-4.562-4.555 4.558 4.558 0 0 1 4.562-4.555h50.669a4.558 4.558 0 0 1 4.563 4.555 4.56 4.56 0 0 1-4.563 4.555z"/>
</svg>
