<svg viewBox="0 0 600 521.404">
  <path d="M601.157 690.255c-46.89-9.282-78.833-26.036-111.483-58.472l-24.167-24.01.075 16.183c.07 14.386 3.192 33.685 8.046 49.705 2.72 8.98-4.291 6.243-19.187-7.487-42.852-39.5-68.57-100.692-72.209-171.82-1.645-32.149-1.27-36.64 3.066-36.64 2.718 0 7.968 4.249 11.666 9.442 10.26 14.409 45.11 43.227 70.13 54.03 61.262 26.453 132.25 31.68 190.052 15.1 31.355-8.993 62.979-25.632 88.992-46.57 11.16-8.983 21.344-16.35 22.63-16.371 5.145-.087 1.738 9.278-9.958 27.374-14.022 21.695-31.757 39.853-52.057 53.3-18.441 12.214-61.683 27.677-86.094 30.785l-19.504 2.483 13.834 10.136c20.64 15.123 42.572 20.434 76.413 18.504 52.646-3.002 96.39-22.793 134.459-60.83 16.132-16.118 45.772-54.806 49.101-64.088.724-2.019 2.406-2.657 3.737-1.417 3.103 2.888-11.565 44.339-25.686 72.587-32.29 64.6-82.065 108.66-141.155 124.951-24.498 6.754-83.894 8.43-110.701 3.125zm-74.419-252.44c.031-75.17 101.464-74.785 101.464-.015 0 68.329-101.477 69.532-101.464.015zm231.897-46.255c-107.381-87.378-251.51-90.806-350.039-12.902-16.846 13.32-21.049 15.747-21.049 11.069 0-9.247 22.294-41.13 41.095-58.771 25.214-23.657 71.56-44.814 109.072-49.79 14.73-1.954 15.713-2.86 10.042-7.866-34.136-30.13-107.009-23.797-140.634-12.19-39.924 13.78-78.547 46.754-106.918 89.97-8.453 12.876-15.921 24.945-16.598 26.821-.676 1.877-2.317 2.4-3.646 1.162-3.375-3.14 3.62-27.23 17.09-58.856 25.253-59.287 63.835-105.328 113.644-126.204 54.211-22.72 120.89-30.049 173.382-11.492 37.895 13.398 65.939 32.062 94.879 62.263l14.194 14.813c1.176-25.593-1.858-48.007-7.61-72.809 2.05-2.105 24.295 18.404 39.435 36.358 19.363 22.962 31.597 46.493 40.94 78.742 10.75 37.111 18.717 106.153 12.21 105.822-1.286-.066-9.477-7.992-19.49-16.14z" style="fill:#000" transform="translate(-279.118 -171.989)"/>
</svg>
