<svg xmlns="http://www.w3.org/2000/svg">
  <defs>
    <clipPath id='mse-split-1-2' clipPathUnits="objectBoundingBox">
      <rect x='0' y='0' width='.5' height='1' transform='rotate(45,.5,.5)' />
    </clipPath>
    <clipPath id='mse-split-2-2' clipPathUnits="objectBoundingBox">
      <rect x='0' y='0' width='.5' height='1' transform='rotate(-135,.5,.5)' />
    </clipPath>
  </defs>
  <!-- BACKGROUND CIRCLES -->
  <symbol id="mse-bg" preserveAspectRatio='xMinYMin meet'>
    <circle cx="50%" cy="50%" r="50%" class="mse-Circle" />
  </symbol>
  <symbol id="mse-bg-W" preserveAspectRatio='xMinYMin meet'>
    <use href="#mse-bg" fill="rgb(248,246,216)" />
  </symbol>
  <symbol id="mse-bg-U" preserveAspectRatio='xMinYMin meet'>
    <use href="#mse-bg" fill="rgb(193,215,233)" />
  </symbol>
  <symbol id="mse-bg-B" preserveAspectRatio='xMinYMin meet'>
    <use href="#mse-bg" fill="rgb(186,177,171)" />
  </symbol>
  <symbol id="mse-bg-R" preserveAspectRatio='xMinYMin meet'>
    <use href="#mse-bg" fill="rgb(228,153,119)" />
  </symbol>
  <symbol id="mse-bg-G" preserveAspectRatio='xMinYMin meet'>
    <use href="#mse-bg" fill="rgb(163,192,149)" />
  </symbol>
  <symbol id="mse-bg-C" preserveAspectRatio='xMinYMin meet'>
    <use href="#mse-bg" fill="rgb(202,197,192)" />
  </symbol>
  <!-- MANA SYMBOLS -->

  <symbol id="mse-W" viewBox="0 0 100 100" preserveAspectRatio='xMinYMin meet'>

    <svg viewBox="0 0 26.924 27.072" preserveAspectRatio='xMinYMin meet' height="100" y="0" x="0">
      <rect height="100%" width="100%" fill="rgba(100,100,100,.5)" />
      <path
        d="M354.561 401.537c-1.862-1.058-3.048-1.587-3.556-1.587-.38 0-.677.296-.91.889-.212.571-.635.867-1.27.867-.254 0-.804-.105-1.609-.296-.444.699-.677 1.143-.677 1.334 0 .254.19.571.593.91.38.36.72.55.973.55.17 0 .403-.042.699-.106.296-.084.487-.106.571-.106.297 0 .445.53.445 1.588 0 1.037-.233 2.603-.72 4.699-.614-2.413-1.27-3.62-1.947-3.62-.106 0-.296.064-.593.212-.296.148-.508.212-.656.212-.698 0-1.312-.635-1.862-1.884-1.08.17-1.63.72-1.63 1.672 0 .466.211.847.656 1.143.444.275.656.487.656.593 0 .656-.931 1.63-2.815 2.963-.995.72-1.672 1.207-2.053 1.503.338-.445.656-.995.995-1.672.38-.783.571-1.397.571-1.82 0-.255-.275-.572-.825-.995-.55-.445-.805-.89-.805-1.355 0-.402.127-.91.424-1.503-.318-.36-.678-.529-1.101-.529-.953 0-1.44.296-1.44.91v.974c.022.783-.57 1.164-1.777 1.164-.932 0-2.477-.212-4.657-.635 2.455-.614 3.704-1.334 3.704-2.138 0 .106-.042-.19-.148-.847-.085-.74.423-1.397 1.566-1.99-.211-1.1-.783-1.65-1.714-1.65-.127 0-.402.254-.783.762-.381.487-.72.74-1.059.74-.571 0-1.312-.613-2.201-1.862-.445-.614-1.1-1.524-1.969-2.73.55.275 1.101.571 1.63.846.72.339 1.291.508 1.715.508.338 0 .656-.296.973-.868.34-.592.741-.889 1.27-.889.085 0 .55.149 1.419.445.465-.699.677-1.207.677-1.545 0-.275-.17-.614-.508-.974-.339-.36-.656-.55-.953-.55-.105 0-.296.042-.55.106-.233.063-.423.105-.55.105-.424 0-.635-.529-.635-1.608 0-.275.275-1.905.825-4.869-.02.36.127 1.016.466 1.99.402 1.185.868 1.778 1.418 1.778.085 0 .275-.063.572-.212.275-.148.508-.211.677-.211.55 0 .995.317 1.355.931l.529.953c.487 0 .91-.17 1.249-.53.317-.36.486-.783.486-1.29 0-.509-.211-.91-.656-1.186-.444-.275-.656-.487-.656-.614 0-.508.783-1.355 2.35-2.54 1.27-.952 2.074-1.503 2.455-1.672-1.016 1.376-1.524 2.392-1.524 3.027 0 .338.19.698.593 1.058.508.466.783.783.867.974.233.55.212 1.29-.084 2.243.656.445 1.143.678 1.46.678.699 0 1.037-.36 1.037-1.08 0-.063-.02-.296-.084-.677-.064-.381-.085-.593-.064-.635.106-.339.762-.487 1.969-.487.762 0 2.328.212 4.74.635-.528.148-1.311.36-2.349.635-.952.296-1.439.614-1.439.974 0 .148.064.444.19.846.106.403.17.699.17.89 0 .338-.212.634-.635.93l-1.207.847c.276.53.466.826.572.932.233.275.55.423.952.423.297 0 .55-.254.784-.74.232-.509.613-.763 1.143-.763.635 0 1.354.593 2.18 1.778.444.678 1.143 1.693 2.095 3.048zm-7.916-2.074c0-1.524-.55-2.836-1.672-3.958-1.1-1.101-2.434-1.672-3.937-1.672-1.545 0-2.879.55-4 1.65-1.122 1.122-1.694 2.435-1.715 3.98-.021 1.524.55 2.836 1.693 3.937 1.164 1.1 2.498 1.65 4.022 1.65 1.609 0 2.942-.528 4.021-1.587 1.08-1.058 1.61-2.392 1.588-4zm-.53 0c0 1.44-.486 2.646-1.46 3.598-.973.953-2.18 1.418-3.62 1.418-1.417 0-2.603-.487-3.597-1.46-.995-.974-1.503-2.16-1.503-3.556 0-1.376.508-2.561 1.503-3.535 1.016-.995 2.2-1.482 3.598-1.482 1.376 0 2.561.487 3.577 1.482.995 1.016 1.503 2.18 1.503 3.535z"
        style="fill:#0d0f0f;fill-opacity:1;fill-rule:nonzero;stroke:none" transform="translate(-327.637 -386)" />
    </svg>
  </symbol>
  <symbol id="mse-U" viewBox="0 0 100 100" preserveAspectRatio='xMinYMin meet'>

    <svg viewBox="0 0 14.139 22.712" preserveAspectRatio='xMinYMin meet' height="100" y="0" x="15">
      <rect height="100%" width="100%" fill="rgba(100,100,100,.5)" />
      <path
        d="M347.675 408.09c-1.333 1.376-3.006 2.053-4.974 2.053-2.223 0-3.98-.762-5.292-2.286-1.227-1.44-1.841-3.28-1.841-5.524 0-2.413 1.058-5.165 3.154-8.255a31.7 31.7 0 0 1 6.032-6.647c-.339 1.546-.508 2.646-.508 3.281 0 1.503.466 2.963 1.418 4.382a153.508 153.508 0 0 0 2.625 3.767c.952 1.418 1.418 2.815 1.418 4.149 0 2.01-.677 3.704-2.032 5.08zm-.021-7.726c-.36-.804-.783-1.355-1.27-1.609.063.149.106.34.106.614 0 .508-.148 1.228-.424 2.16l-.486 1.46c0 .846.423 1.27 1.27 1.27.889 0 1.333-.593 1.333-1.778 0-.614-.17-1.313-.53-2.117z"
        style="fill:#0d0f0f;fill-opacity:1;fill-rule:nonzero;stroke:none" transform="translate(-335.568 -387.431)" />
    </svg>
  </symbol>
  <symbol id="mse-B" viewBox="0 0 100 100" preserveAspectRatio='xMinYMin meet'>
    <svg viewBox="0 0 81.394 84.533" preserveAspectRatio='xMinYMin meet' height="100" y="0" x="2">
      <rect height="100%" width="100%" fill="rgba(100,100,100,.5)" />
      <path
        d="M739.122 459.476c0 5.518-2.008 9.28-6.02 11.287-1.172.586-4.85 1.379-11.037 2.383-4.012.67-6.018 2.217-6.018 4.639v10.158c0 .422.125 1.715.375 3.889l.377 4.014c0 1.255-.293 3.306-.879 6.146a768.55 768.55 0 0 1-5.518 1.132c-.67-2.511-1.004-4.224-1.004-5.146 0-.416.105-1.045.313-1.882.207-.834.316-1.461.316-1.883 0-.58-.52-2.213-1.559-4.887h-1.945c-.258.418-.344.96-.26 1.629.334 1.422.459 2.633.377 3.637a282.507 282.507 0 0 1-5.895 4.013c-.586-.166-.793-.25-.629-.25v-8.904c-.164-.416-.584-.581-1.254-.502h-1.504l-1.504 11.787c-1.174.084-2.592.084-4.264 0-.588-2.758-1.631-6.853-3.135-12.29h-1.004c-.922 2.93-1.422 4.52-1.506 4.77 0 .334.104.98.314 1.942.207.962.313 1.609.313 1.943 0 .25-.084.877-.25 1.88l-.377 3.01a.857.857 0 0 1-.627.25c-2.508 0-4.182-.626-5.016-1.878-.836-1.256-1.172-3.012-1.004-5.271l1.004-15.047c0-.252.082-.586.25-1.004.164-.418.25-.711.25-.877 0-.67-.711-2.008-2.131-4.014-.248-.082-1.549-.377-3.887-.88-1.424-.333-4.225-.917-8.402-1.755-5.771-1.084-8.654-5.725-8.654-13.92 0-12.207 5.018-22.365 15.051-30.475.414 2.258 1.127 5.266 2.129 9.029.754.17 2.385.545 4.891 1.129.504.168 3.053 1.088 7.652 2.76-2.344-1.422-5.393-3.72-9.156-6.898-1.422-1.672-2.133-4.471-2.133-8.4 0-.92 1.59-2.008 4.768-3.264 2.84-1.17 4.975-1.836 6.396-2.006 4.514-.582 7.984-.88 10.41-.88 10.449 0 18.891 2.679 25.328 8.03-2.088 2.426-5.684 5.014-10.783 7.773 2.008.084 4.934-.707 8.779-2.383 3.844-1.67 5.475-2.508 4.891-2.508.668 0 2.008 1.34 4.014 4.014 1.504 2.006 2.715 3.807 3.637 5.39 2.674 4.769 4.471 9.909 5.393 15.427 0 1.926.041 3.305.125 4.139v1.004h.002zm-48.031 2.258c0-3.594-1.568-7.002-4.703-10.223-3.137-3.22-6.502-4.826-10.096-4.826-3.178 0-5.977 1.348-8.402 4.039-2.426 2.693-3.637 5.682-3.637 8.963 0 2.859 1.379 4.713 4.139 5.553 1.756.506 4.219.8 7.398.883h6.898c5.598.084 8.403-1.38 8.403-4.39zm13.668 15.553v-3.89a122.602 122.602 0 0 1-1.754-3.386c-.502-1.674-1.422-4.014-2.76-7.025l-1.381 14.674c0 1.172-.25 1.756-.752 1.756-.334 0-.584-.082-.752-.248-.586-8.863-.879-12.71-.879-11.541v-4.387c-.168-.254-.375-.38-.625-.38-2.844 2.93-4.264 7.653-4.264 14.173 0 3.596.33 5.81 1.002 6.648.67-.166 1.422-.46 2.258-.877.334-.168 1.295-.252 2.887-.252 1.584 0 3.51.502 5.766 1.504.836 0 1.254-2.256 1.254-6.77zm28.344-17.475c0-3.367-1.254-6.375-3.762-9.025-2.51-2.648-5.395-3.975-8.652-3.975-3.512 0-6.795 1.607-9.846 4.826-3.053 3.219-4.578 6.584-4.578 10.096 0 2.928 1.42 4.389 4.264 4.389h14.422c5.433-.082 8.152-2.186 8.152-6.311z"
        style="fill:#0d0f0f" transform="translate(-657.728 -418.59)" />
    </svg>
  </symbol>
  <symbol id="mse-R" viewBox="0 0 100 100" preserveAspectRatio='xMinYMin meet'>

    <svg heigh="100" x="6" y="0" viewBox="0 0 21.78 24.227" preserveAspectRatio='xMinYMin meet'>
      <rect height="100%" width="100%" fill="rgba(100,100,100,.5)" />
      <path
        d="M671.073 498.616c-1.058 2.518-3.154 3.767-6.286 3.767-.572 0-1.207.064-1.863.212-1.016.211-1.524.529-1.524.91 0 .106.085.254.254.402.17.17.318.233.445.233-.614 0-.19.021 1.206.063 1.418.022 2.307.043 2.667.043-2.095 1.227-5.567 1.799-10.456 1.693-1.609-.021-2.985-.74-4.128-2.117-1.121-1.312-1.693-2.794-1.693-4.423 0-1.715.572-3.196 1.736-4.403 1.164-1.206 2.603-1.82 4.339-1.82.38 0 .889.084 1.524.254.635.169 1.058.254 1.27.254.889 0 1.99-.36 3.302-1.101 1.333-.72 1.947-1.08 1.884-1.08-.254 2.52-1.08 4.192-2.52 5.06-1.036.592-1.544 1.185-1.544 1.756 0 .36.211.656.635.868.338.17.72.254 1.121.254.614 0 1.228-.381 1.842-1.143.593-.783.847-1.482.783-2.095-.063-.72-.021-1.588.148-2.583.043-.296.212-.635.508-1.058.297-.423.572-.677.826-.783 0 .211-.085.571-.254 1.08-.148.507-.233.888-.233 1.121 0 .53.148.931.444 1.207.424-.149.805-.699 1.143-1.61.297-.698.466-1.354.508-2.01-1.016-.042-1.968-.508-2.9-1.355-.91-.867-1.375-1.799-1.375-2.815 0-.17.021-.338.063-.508.148.233.36.55.656 1.016.403.593.72.89.932.89.296 0 .423-.297.423-.89 0-.762-.19-1.46-.593-2.074-.465-.762-1.058-1.122-1.778-1.122-.338 0-.825.17-1.502.53-.678.36-1.27.55-1.82.55-.17 0-.932-.212-2.244-.657 2.328-.38 3.492-.72 3.492-1.037 0-.804-1.587-1.354-4.784-1.65a48.146 48.146 0 0 1-1.714-.149c.085-.106.762-.254 2.032-.402 1.08-.106 1.841-.17 2.265-.17 5.715 0 9.334 2.773 10.858 8.298.254-.212.402-.572.402-1.1 0-.636-.19-1.482-.592-2.477-.127-.381-.36-.953-.678-1.736 1.969 2.498 2.943 4.868 2.943 7.112 0 1.185-.276 2.244-.826 3.217-.36.635-1.016 1.482-2.01 2.477-.974 1.016-1.652 1.799-2.012 2.35 1.313-.36 2.18-.636 2.583-.826.91-.402 1.735-1.016 2.497-1.82 0 .296-.148.762-.402 1.397zm-15.663-14.119c0 .424-.233.699-.72.826l-.931.148c-.339.17-.826.826-1.482 1.969-.063-.36-.169-.868-.317-1.503-.212.021-.572.211-1.08.571-.211.17-.571.424-1.037.741.148-.847.614-1.736 1.44-2.603.846-.995 1.693-1.482 2.497-1.482 1.08 0 1.63.444 1.63 1.333zm6.244 3.302c0 .403-.212.741-.656 1.016-.445.276-.89.424-1.312.424-.572 0-1.101-.318-1.546-.974-.55-.783-1.121-1.312-1.693-1.545a.599.599 0 0 1 .423-.19c.233 0 .593.169 1.101.507.53.34.847.508.995.508.127 0 .317-.169.593-.508.275-.338.571-.508.91-.508.804 0 1.185.424 1.185 1.27z"
        style="fill:#0d0f0f;fill-opacity:1;fill-rule:nonzero;stroke:none" transform="translate(-649.695 -481.725)" />
    </svg>
  </symbol>

  <symbol id="mse-G" viewBox="0 0 100 100" preserveAspectRatio='xMinYMin meet'>

    <svg viewBox="0 0 24.638 25.061" y="0" x="1.5" height="100" preserveAspectRatio='xMinYMin meet'>
      <rect height="100%" width="100%" fill="rgba(100,100,100,.5)" />
      <path
        d="M696.3 533.925c0 .466-.17.89-.55 1.27-.36.36-.784.55-1.25.55-.74 0-1.29-.36-1.65-1.058l-1.652-.063c-.36 0-1.058.148-2.095.465-1.1.297-1.736.55-1.905.72-.254.296-.466.953-.635 1.99-.127.846-.19 1.46-.19 1.862 0 .635.084 1.101.296 1.397.19.297.614.53 1.227.741.614.19.995.318 1.143.339.106 0 .254-.021.466-.042h.423c.297 0 .614.042.953.148.466.127.656.317.593.55-.339-.042-.91.021-1.736.212l.995.508c0 .275-.402.423-1.207.423-.211 0-.487-.063-.846-.148-.381-.106-.614-.148-.741-.148h-.445c-.02.233-.106.592-.211 1.058-.403-.021-.868-.254-1.419-.698-.529-.445-.867-.678-1.015-.678-.149 0-.34.233-.593.678-.275.444-.402.74-.402.91-.297-.17-.55-.466-.762-.91a44.47 44.47 0 0 0-.318-.91c-.233.02-.677.507-1.312 1.481h-.17c-.063-.085-.232-.571-.529-1.482-.74-.232-1.418-.36-2.053-.36-.296 0-.783.064-1.418.212l-.974-.063c.127-.148.55-.424 1.228-.826.804-.465 1.418-.698 1.842-.698.063 0 .148.02.275.042.127.021.211.021.275.021.17 0 .444-.084.804-.254.36-.17.572-.338.635-.487.064-.127.085-.508.085-1.08 0-1.354-.36-2.349-1.058-3.005-.614-.592-1.63-1.016-3.027-1.27-.381 1.334-1.44 2.011-3.175 2.011-.572 0-1.122-.339-1.694-1.016-.571-.677-.846-1.312-.846-1.863 0-.889.36-1.587 1.1-2.159-.592-.613-.889-1.227-.889-1.862 0-.593.191-1.122.55-1.567.36-.444.826-.698 1.419-.762-.042-.762.212-1.27.74-1.566-.253-.254-.38-.698-.38-1.354 0-.784.254-1.44.783-1.948.508-.529 1.143-.783 1.926-.783.847 0 1.545.296 2.074.889.699-2.328 2.16-3.492 4.424-3.492 1.164 0 2.202.465 3.09 1.418.34.338.487.529.487.55-.275 0-.127-.042.424-.148.571-.106.995-.17 1.249-.17.91 0 1.714.34 2.434 1.038.613.592 1.037 1.376 1.27 2.307.148.042.423.106.762.212.529.275.783.72.783 1.354 0 .106-.106.339-.275.656 1.502.847 2.243 2.032 2.243 3.535 0 .423-.169 1.016-.487 1.757.614.36.91.868.91 1.566zm-14.52 1.545v-.465c0-.53-.276-1.037-.784-1.482-.529-.444-1.08-.656-1.608-.656-.657 0-1.27.148-1.842.444 1.249-.063 2.667.657 4.233 2.16zm-.636-4.381a7.99 7.99 0 0 1-.91-1.228c-.995.254-1.481.55-1.481.89.275-.022.677.02 1.227.147s.932.19 1.164.19zm2.16-1.08v-1.566c-.572-.085-.91-.127-1.038-.127v.53l1.037 1.163zm4.571-.994a87.18 87.18 0 0 0-1.587-.699v3.027c1.1-.635 1.63-1.418 1.587-2.328zm1.948 4.17-.784-.953c-.465.317-.952.656-1.418.995-.487.338-.91.72-1.249 1.143a12.085 12.085 0 0 1 3.45-1.186z"
        style="fill:#0d0f0f;fill-opacity:1;fill-rule:nonzero;stroke:none" transform="translate(-671.662 -519.85)" />
    </svg>
  </symbol>
  <symbol id="mse-C" viewBox="0 0 100 100" preserveAspectRatio='xMinYMin meet'>
    <rect height="100%" width="100%" fill="rgba(100,100,100,.5)" />

    <svg viewBox="0 0 300 300" preserveAspectRatio='xMinYMin meet' width="100" height="100">
      <path style="fill:#0d0f0f;"
        d="M149.062 36.079c7.424 14.903 16.512 29.378 27.288 43.424 4.584 5.897 9.838 12.063 15.762 18.442 5.843 6.379 12.33 12.759 19.353 19.031 7.076 6.272 14.823 12.223 23.267 17.852s17.53 10.775 27.287 15.386c-14.34 7.667-28.547 16.995-42.674 28.038-5.869 4.61-12.008 9.918-18.441 15.976-6.379 6.005-12.651 12.599-18.79 19.729a255.605 255.605 0 0 0-17.69 23.481c-5.63 8.417-10.75 17.369-15.36 26.858-7.184-14.1-16.136-28.038-26.885-41.869-9.221-11.794-20.881-24.178-34.98-37.259-14.072-13.081-31.12-24.714-51.09-34.954 14.367-7.451 28.574-16.672 42.673-27.662 12.035-9.489 24.446-21.337 37.232-35.543 12.81-14.207 23.8-31.148 33.048-50.93zM132.55 194.764c6.674 8.471 12.169 17.048 16.512 25.733 5.656-12.063 12.438-22.409 20.344-31.094 7.936-8.738 15.654-16.029 23.08-21.927 8.443-6.594 17.262-12.384 26.51-17.315-12.304-5.576-22.758-12.384-31.309-20.318-8.604-7.935-15.842-15.601-21.711-23.053-6.675-8.416-12.331-17.369-16.915-26.858-5.629 12.277-12.384 22.784-20.157 31.47-7.827 8.738-15.439 15.976-22.865 21.926a159.005 159.005 0 0 1-26.51 16.887c12.303 6.38 22.784 13.563 31.496 21.498s15.896 15.653 21.525 23.051z" />
    </svg>
  </symbol>
  <symbol id="mse-Phy" viewBox="0 0 100 100" preserveAspectRatio='xMinYMin meet'>
    <rect height="100%" width="100%" fill="rgba(100,100,100,.5)" />

    <svg viewBox="0 0 15.654 27.665" height="100" y="0" x="13" preserveAspectRatio='xMinYMin meet'>
      <path
        d="M604.035 482.595c.021-1.503-.444-3.027-1.397-4.212-.444-.487-.825-1.059-1.312-1.524-1.058-1.059-2.646-1.122-3.916-1.8-.063-.655-.317-1.333-.17-1.989.043-.233.107-.466 0-.677-.338-.762-.063-1.609-.105-2.413-.042-.402-.021-.932-.423-1.186-.085.868-.424 1.694-.678 2.52-.127.634-.127 1.312-.402 1.925.19.614-.17 1.143-.55 1.588-.826.444-1.82.529-2.561 1.164-.508.444-1.08.825-1.651 1.185-.445.55-.932 1.08-1.122 1.757-.783.953-.868 2.223-1.312 3.323 0 1.63.317 3.387 1.375 4.7.741.613 1.27 1.46 2.011 2.074.72.423 1.482.783 2.223 1.164.486.106.973.169 1.46.296.381 2.01.656 4.064 1.44 5.969.253-.783.232-1.63.444-2.413.317-1.164-.318-2.392.042-3.535.55-.487 1.46-.17 2.053-.592 1.165-.699 2.392-1.397 3.218-2.498.317-.614.973-1.08.973-1.842 0-1.016.593-1.947.36-2.984zm-8.572 6.202c-.826-.212-1.609-.614-2.307-1.1-.762-.509-1.037-1.44-1.778-1.948-.699-.847-.55-1.969-.847-2.964.127-.677.254-1.375.339-2.074.338-.55.846-.995.995-1.65.508-.72 1.27-1.207 1.883-1.821.445-.508 1.143-.297 1.715-.318-.042.55-.085 1.143.042 1.694.064.338.233.677.17 1.037-.106.762.169 1.524-.022 2.286-.423 1.566.021 3.154.064 4.741-.043.72-.085 1.418-.254 2.117zm6.35-2.985c-.55.381-1.016.868-1.503 1.355-.847.571-1.672 1.185-2.667 1.482.085-.72.17-1.46-.064-2.16-.55-1.566.127-3.217.254-4.825-.105-.932-.02-1.948-.444-2.837-.064-.656.233-1.29.423-1.905.656.275 1.27.635 1.82 1.08.678.508 1.694.825 1.842 1.757.064.613.74.973.72 1.608-.043 1.482.17 3.027-.381 4.445z"
        style="fill:#111212;fill-opacity:1;fill-rule:nonzero;stroke:none" transform="translate(-588.436 -468.794)" />
    </svg>
  </symbol>

  <symbol id="mse-Inf" viewBox="0 0 100 100" preserveAspectRatio='xMinYMin meet'>
    <rect height="100%" width="100%" fill="rgba(100,100,100,.5)" />

    <svg width="80" y="32" x="10" viewBox="0 0 24.447 11.176" preserveAspectRatio='xMinYMin meet'>
      <path
        d="M737.761 584.277c2.032-2.837 4.276-4.255 6.774-4.255 1.672 0 2.984.508 3.979 1.524.995 1.016 1.482 2.35 1.482 4.022 0 1.65-.487 3.005-1.482 4.064-.995 1.058-2.307 1.566-3.937 1.566-2.455 0-4.72-1.418-6.816-4.254-2.159 2.836-4.402 4.254-6.752 4.254-1.65 0-2.984-.508-3.98-1.545-.994-1.037-1.48-2.392-1.48-4.064 0-1.651.486-3.006 1.48-4.022.996-1.037 2.33-1.545 3.98-1.545 2.392 0 4.636 1.418 6.752 4.255zm-1.058 1.354c-1.905-2.603-3.831-3.915-5.757-3.915-1.164 0-2.075.36-2.752 1.079-.698.72-1.037 1.651-1.037 2.794 0 1.164.339 2.095 1.037 2.857.677.741 1.588 1.101 2.752 1.101 1.82 0 3.746-1.291 5.757-3.916zm2.074 0c1.99 2.625 3.937 3.916 5.842 3.916 1.122 0 2.011-.36 2.688-1.08.678-.719 1.016-1.65 1.016-2.793 0-1.207-.338-2.16-1.016-2.879-.677-.72-1.587-1.08-2.772-1.08-1.165 0-2.265.403-3.302 1.25-.635.507-1.44 1.396-2.456 2.666z"
        style="fill:#0d0f0f;fill-opacity:1;fill-rule:nonzero;stroke:none" transform="translate(-725.548 -580.022)" />
    </svg>
  </symbol>
  <symbol id="mse-T" viewBox="0 0 100 100" preserveAspectRatio='xMinYMin meet'>

    <svg height="65" y="23" x="23" viewBox="0 0 17.78 18.542" preserveAspectRatio='xMinYMin meet'>
      <path
        d="M729.837 542.937h-10.16l3.726-2.646c-1.397-1.1-2.985-1.65-4.805-1.65-.91 0-1.524.19-1.863.529-.317.338-.486.973-.486 1.883 0 2.498 1.29 5.165 3.852 8.001l-2.921 2.985c-3.408-4.17-5.122-7.874-5.122-11.134 0-1.968.592-3.513 1.778-4.678 1.164-1.143 2.751-1.735 4.699-1.735 2.391 0 4.974.91 7.789 2.73l2.18-3.725 1.333 9.44z"
        style="fill:#0d0f0f;fill-opacity:1;fill-rule:nonzero;stroke:none" transform="translate(-712.058 -533.497)" />
    </svg>
  </symbol>


  <!-- MANA SYMBOLS WITH BACKGROUNDS -->


  <symbol id="mse-ManaG" viewBox="0 0 100 100">
    <use href="#mse-bg" height="100" width="100" style="fill:rgb(163,192,149)" />
    <use href="#mse-G" height="80" x="10" y="10" />
  </symbol>

  <symbol id="mse-ManaR" viewBox="0 0 100 100">
    <use href="#mse-bg-R" height="100" width="100" />
    <use href="#mse-R" height="70" x="15" y="15" />
  </symbol>
  <symbol id="mse-ManaRW" viewBox="0 0 100 100">
    <use href="#mse-bg-R" height="100" width="100" clip-path="url(#mse-split-1-2)" />
    <use href="#mse-R" height="37" x="15" y="15" />
    <use href="#mse-bg-W" height="100" width="100" clip-path="url(#mse-split-2-2)" />
    <use href="#mse-W" height="40" y="50" x="50" />
  </symbol>


</svg>